Release info:

General
Format                                   : Matroska
Format version                           : Version 2
File size                                : 688 MiB
Duration                                 : 2h 20mn
Overall bit rate                         : 683 Kbps
Movie name                               : Son of Sardaar 2012 DVDRip Hindi

Video
ID                                       : 1
Format                                   : MPEG-4 Visual
Format profile                           : Advanced Simple@L5
Format settings, BVOP                    : Yes
Format settings, QPel                    : No
Format settings, GMC                     : No warppoints
Format settings, Matrix                  : Custom
Codec ID                                 : V_MS/VFW/FOURCC / XVID
Codec ID/Hint                            : XviD
Duration                                 : 2h 20mn
Bit rate                                 : 589 Kbps
Width                                    : 608 pixels
Height                                   : 256 pixels
Display aspect ratio                     : 2.40:1
Frame rate mode                          : Constant
Frame rate                               : 23.976 fps
Color space                              : YUV
Chroma subsampling                       : 4:2:0
Bit depth                                : 8 bits
Scan type                                : Progressive
Compression mode                         : Lossy
Bits/(Pixel*Frame)                       : 0.158
Stream size                              : 594 MiB (86%)
Title                                    : Son of Sardaar 2012 DVDRip Hindi
Language                                 : Hindi
Default                                  : Yes
Forced                                   : No

Audio
ID                                       : 2
Format                                   : MPEG Audio
Format version                           : Version 1
Format profile                           : Layer 3
Mode                                     : Joint stereo
Mode extension                           : MS Stereo
Muxing mode                              : Header stripping
Codec ID                                 : A_MPEG/L3
Codec ID/Hint                            : MP3
Duration                                 : 2h 20mn
Bit rate mode                            : Constant
Bit rate                                 : 80.0 Kbps
Channel(s)                               : 2 channels
Sampling rate                            : 32.0 KHz
Compression mode                         : Lossy
Delay relative to video                  : 360ms
Stream size                              : 80.6 MiB (12%)
Title                                    : Son of Sardaar 2012 DVDRip Hindi
Language                                 : Hindi
Default                                  : Yes
Forced                                   : No



Source:
credit to original movie ripper DDR (Thanks)

IMDB Info:

Returning to his parents' village, a man becomes the latest target in a long-standing family feud.

Director: Ashwani Dhir
Writers: Robin Bhatt (screenplay), Ashwani Dhir (screenplay), and 1 more credit ┬╗
Stars: Ajay Devgn, Sanjay Dutt, Sonakshi Sinha 

Genres: Action | Comedy | Romance
 
http://www.imdb.com/title/tt2178508/

Screen Shot:
 
http://www.shotpix.com/images/31199304398270065073.png 
http://www.shotpix.com/images/13386279276825166955.png 
http://www.shotpix.com/images/41109243120687220165.png 
http://www.shotpix.com/images/17528972811442641658.png